<?xml version="1.0" encoding="iso-8859-1"?>
<!-- Generator: Adobe Illustrator 19.0.0, SVG Export Plug-In . SVG Version: 6.00 Build 0)  -->
<svg version="1.1" id="Layer_1" xmlns="http://www.w3.org/2000/svg" xmlns:xlink="http://www.w3.org/1999/xlink" x="0px" y="0px"
	 viewBox="0 0 512 512" style="enable-background:new 0 0 512 512;" xml:space="preserve">
<path style="fill:#FF646A;" d="M486.697,482.5H25.303C11.329,482.5,0,471.171,0,457.197V215.982
	c0-13.974,11.329-25.303,25.303-25.303h461.394c13.974,0,25.303,11.329,25.303,25.303v241.215
	C512,471.171,500.671,482.5,486.697,482.5z"/>
<rect x="26.643" y="217.31" style="fill:#FFE17D;" width="458.71" height="238.57"/>
<g>
	<path style="fill:#6F7485;" d="M287.015,431.629h-64.676c-4.143,0-7.5-3.357-7.5-7.5s3.357-7.5,7.5-7.5h64.676
		c4.143,0,7.5,3.357,7.5,7.5S291.157,431.629,287.015,431.629z"/>
	<path style="fill:#6F7485;" d="M145.608,256.809H80.933c-4.143,0-7.5-3.357-7.5-7.5s3.357-7.5,7.5-7.5h64.676
		c4.143,0,7.5,3.357,7.5,7.5S149.751,256.809,145.608,256.809z"/>
	<path style="fill:#6F7485;" d="M145.608,343.74H80.933c-4.143,0-7.5-3.357-7.5-7.5s3.357-7.5,7.5-7.5h64.676
		c4.143,0,7.5,3.357,7.5,7.5S149.751,343.74,145.608,343.74z"/>
	<path style="fill:#6F7485;" d="M60.295,333.104c-4.143,0-7.5-3.357-7.5-7.5v-64.636c0-4.143,3.357-7.5,7.5-7.5s7.5,3.357,7.5,7.5
		v64.636C67.795,329.746,64.438,333.104,60.295,333.104z"/>
	<path style="fill:#6F7485;" d="M166.706,333.104c-4.143,0-7.5-3.357-7.5-7.5v-64.636c0-4.143,3.357-7.5,7.5-7.5s7.5,3.357,7.5,7.5
		v64.636C174.206,329.746,170.849,333.104,166.706,333.104z"/>
	<path style="fill:#6F7485;" d="M145.608,431.629H80.933c-4.143,0-7.5-3.357-7.5-7.5s3.357-7.5,7.5-7.5h64.676
		c4.143,0,7.5,3.357,7.5,7.5S149.751,431.629,145.608,431.629z"/>
	<path style="fill:#6F7485;" d="M60.295,420.992c-4.143,0-7.5-3.357-7.5-7.5v-64.636c0-4.143,3.357-7.5,7.5-7.5s7.5,3.357,7.5,7.5
		v64.636C67.795,417.635,64.438,420.992,60.295,420.992z"/>
	<path style="fill:#6F7485;" d="M166.706,420.992c-4.143,0-7.5-3.357-7.5-7.5v-64.636c0-4.143,3.357-7.5,7.5-7.5s7.5,3.357,7.5,7.5
		v64.636C174.206,417.635,170.849,420.992,166.706,420.992z"/>
	<path style="fill:#6F7485;" d="M287.015,256.809h-64.676c-4.143,0-7.5-3.357-7.5-7.5s3.357-7.5,7.5-7.5h64.676
		c4.143,0,7.5,3.357,7.5,7.5S291.157,256.809,287.015,256.809z"/>
	<path style="fill:#6F7485;" d="M287.015,343.74h-64.676c-4.143,0-7.5-3.357-7.5-7.5s3.357-7.5,7.5-7.5h64.676
		c4.143,0,7.5,3.357,7.5,7.5S291.157,343.74,287.015,343.74z"/>
	<path style="fill:#6F7485;" d="M201.702,333.104c-4.143,0-7.5-3.357-7.5-7.5v-64.636c0-4.143,3.357-7.5,7.5-7.5s7.5,3.357,7.5,7.5
		v64.636C209.202,329.746,205.845,333.104,201.702,333.104z"/>
	<path style="fill:#6F7485;" d="M308.113,333.104c-4.143,0-7.5-3.357-7.5-7.5v-64.636c0-4.143,3.357-7.5,7.5-7.5s7.5,3.357,7.5,7.5
		v64.636C315.613,329.746,312.256,333.104,308.113,333.104z"/>
	<path style="fill:#6F7485;" d="M201.702,420.992c-4.143,0-7.5-3.357-7.5-7.5v-64.636c0-4.143,3.357-7.5,7.5-7.5s7.5,3.357,7.5,7.5
		v64.636C209.202,417.635,205.845,420.992,201.702,420.992z"/>
	<path style="fill:#6F7485;" d="M308.113,420.992c-4.143,0-7.5-3.357-7.5-7.5v-64.636c0-4.143,3.357-7.5,7.5-7.5s7.5,3.357,7.5,7.5
		v64.636C315.613,417.635,312.256,420.992,308.113,420.992z"/>
	<path style="fill:#6F7485;" d="M428.422,256.809h-64.676c-4.143,0-7.5-3.357-7.5-7.5s3.357-7.5,7.5-7.5h64.676
		c4.143,0,7.5,3.357,7.5,7.5S432.564,256.809,428.422,256.809z"/>
	<path style="fill:#6F7485;" d="M428.422,343.74h-64.676c-4.143,0-7.5-3.357-7.5-7.5s3.357-7.5,7.5-7.5h64.676
		c4.143,0,7.5,3.357,7.5,7.5S432.564,343.74,428.422,343.74z"/>
	<path style="fill:#6F7485;" d="M343.108,333.104c-4.143,0-7.5-3.357-7.5-7.5v-64.636c0-4.143,3.357-7.5,7.5-7.5s7.5,3.357,7.5,7.5
		v64.636C350.608,329.746,347.251,333.104,343.108,333.104z"/>
	<path style="fill:#6F7485;" d="M449.52,333.104c-4.143,0-7.5-3.357-7.5-7.5v-64.636c0-4.143,3.357-7.5,7.5-7.5s7.5,3.357,7.5,7.5
		v64.636C457.02,329.746,453.662,333.104,449.52,333.104z"/>
	<path style="fill:#6F7485;" d="M428.422,431.629h-64.676c-4.143,0-7.5-3.357-7.5-7.5s3.357-7.5,7.5-7.5h64.676
		c4.143,0,7.5,3.357,7.5,7.5S432.564,431.629,428.422,431.629z"/>
	<path style="fill:#6F7485;" d="M343.108,420.992c-4.143,0-7.5-3.357-7.5-7.5v-64.636c0-4.143,3.357-7.5,7.5-7.5s7.5,3.357,7.5,7.5
		v64.636C350.608,417.635,347.251,420.992,343.108,420.992z"/>
	<path style="fill:#6F7485;" d="M449.52,420.992c-4.143,0-7.5-3.357-7.5-7.5v-64.636c0-4.143,3.357-7.5,7.5-7.5s7.5,3.357,7.5,7.5
		v64.636C457.02,417.635,453.662,420.992,449.52,420.992z"/>
</g>
<g>
	<rect x="464.75" y="217.31" style="fill:#FFAB5F;" width="20.604" height="238.57"/>
	<path style="fill:#FFAB5F;" d="M264.298,34.655l11.899,24.096c3.461,7.008,10.15,11.865,17.889,12.989l26.608,3.864
		c7.59,1.102,10.621,10.424,5.129,15.774l-19.254,18.756c-5.6,5.455-8.155,13.314-6.833,21.017l4.545,26.484
		c1.297,7.555-6.638,13.316-13.427,9.749l-30.549-16.05c-2.696-1.416-5.916-1.416-8.612,0l-30.549,16.05
		c-6.789,3.567-14.723-2.194-13.427-9.749l4.545-26.484c1.322-7.702-1.233-15.562-6.833-21.017l-19.254-18.756
		c-5.492-5.35-2.462-14.672,5.128-15.774l26.608-3.864c7.738-1.124,14.428-5.981,17.889-12.989l11.899-24.096
		C251.096,27.782,260.904,27.782,264.298,34.655z"/>
	<path style="fill:#FFAB5F;" d="M112.495,54.188l10.067,20.385c2.928,5.929,8.587,10.038,15.134,10.989l22.511,3.269
		c6.421,0.932,8.985,8.819,4.339,13.345l-16.289,15.868c-4.737,4.615-6.899,11.264-5.781,17.78l3.845,22.406
		c1.097,6.391-5.616,11.265-11.359,8.248l-25.844-13.579c-2.281-1.198-5.005-1.198-7.286,0l-25.844,13.579
		c-5.743,3.018-12.456-1.856-11.359-8.248l3.845-22.406c1.118-6.516-1.043-13.165-5.781-17.78l-16.289-15.868
		c-4.646-4.526-2.082-12.413,4.339-13.345l22.511-3.269c6.547-0.951,12.206-5.06,15.134-10.989l10.067-20.385
		C101.326,48.373,109.623,48.373,112.495,54.188z"/>
	<path style="fill:#FFAB5F;" d="M413.546,54.188l10.067,20.385c2.928,5.929,8.587,10.038,15.134,10.989l22.511,3.269
		c6.421,0.932,8.985,8.819,4.339,13.345l-16.289,15.868c-4.737,4.615-6.899,11.264-5.781,17.78l3.845,22.406
		c1.097,6.391-5.616,11.265-11.359,8.248l-25.844-13.579c-2.281-1.198-5.005-1.198-7.286,0l-25.844,13.579
		c-5.743,3.018-12.456-1.856-11.359-8.248l3.845-22.406c1.118-6.516-1.043-13.165-5.781-17.78l-16.289-15.868
		c-4.646-4.526-2.082-12.413,4.339-13.345l22.511-3.269c6.547-0.951,12.206-5.06,15.134-10.989l10.067-20.385
		C402.377,48.373,410.674,48.373,413.546,54.188z"/>
</g>
<g>
</g>
<g>
</g>
<g>
</g>
<g>
</g>
<g>
</g>
<g>
</g>
<g>
</g>
<g>
</g>
<g>
</g>
<g>
</g>
<g>
</g>
<g>
</g>
<g>
</g>
<g>
</g>
<g>
</g>
</svg>
